<svg aria-hidden="true" viewBox="0 0 40 40" xmlns="http://www.w3.org/2000/svg">
  <path fill="none" d="M0,0h40v40H0V0z"/>
  <path d="M4.3,4.7C4.2,5,4.2,5.4,4.2,5.8V34.3c0,0.4,0,0.7,0.1,1.1L20,20Z" fill="#4285F4"/>
  <path d="M20,20L27.8,12.1L10.5,2.3C9.9,1.9,9.1,1.7,8.3,1.7c-1.9,0-3.6,1.3-4,3Z" fill="#34A853"/>
  <path d="M35.3,16.4L27.8,12.1L20,20L27.8,27.8L35.3,23.6c1.3-0.7,2.2-2.1,2.2-3.6C37.5,18.5,36.6,17.1,35.3,16.4Z" fill="#FBBC04"/>
  <path d="M20,20L4.3,35.3c0.5,1.7,2.1,3,4,3c0.8,0,1.5-0.2,2.1-0.6l17.4-9.9Z" fill="#EA4335"/>
</svg>
